<?xml version="1.0" standalone="no"?>
<!DOCTYPE svg PUBLIC "-//W3C//DTD SVG 20010904//EN"
 "http://www.w3.org/TR/2001/REC-SVG-20010904/DTD/svg10.dtd">
<svg version="1.0" xmlns="http://www.w3.org/2000/svg"
 width="951.000000pt" height="465.000000pt" viewBox="0 0 951.000000 465.000000"
 preserveAspectRatio="xMidYMid meet">
<metadata>
Created by potrace 1.14, written by Peter Selinger 2001-2017
</metadata>
<g transform="translate(0.000000,465.000000) scale(0.100000,-0.100000)"
fill="#000000" stroke="none">
<path d="M5619 4400 c-1 -38 -2 -41 -9 -20 -6 20 -8 15 -9 -25 -1 -27 -8 -88
-15 -135 l-14 -85 -3 100 c-3 83 -4 71 -9 -75 l-6 -175 -3 165 c-2 91 -6 190
-10 220 -7 52 -7 49 -16 -60 l-10 -115 -6 70 -5 70 -4 -85 -4 -85 -5 75 -6 75
-11 -125 -11 -125 -1 107 c-1 59 -6 109 -11 112 -5 3 -13 -51 -17 -122 -10
-143 -11 -847 -2 -1047 3 -71 4 -118 1 -102 -3 19 -10 27 -26 28 -12 0 -31 4
-42 9 -13 6 -6 7 23 3 41 -5 44 -5 40 17 -1 13 -10 26 -18 31 -50 25 -1404 33
-1710 10 -138 -10 -184 -6 -176 15 3 8 1 14 -5 14 -5 0 23 30 62 68 40 37 99
103 133 147 70 93 65 90 -142 -97 -73 -66 -136 -117 -140 -114 -3 4 29 39 73
79 108 98 166 161 225 245 47 67 56 97 15 52 -20 -22 -41 -27 -29 -7 5 6 -25
-17 -65 -53 -197 -177 -202 -177 -36 1 80 84 164 189 152 189 -2 0 -22 -14
-43 -31 -22 -17 -47 -35 -58 -41 -21 -11 -20 -9 24 57 15 22 31 47 35 55 10
17 -64 -40 -85 -65 -7 -9 -23 -21 -34 -27 -19 -10 -20 -10 -7 5 29 36 -2 13
-101 -74 -111 -98 -166 -141 -153 -120 12 21 -166 -122 -240 -192 -36 -33 -65
-67 -65 -74 0 -7 -14 -36 -31 -65 -18 -29 -31 -60 -30 -68 1 -8 1 -27 1 -42 0
-19 5 -28 15 -28 26 0 68 -32 54 -41 -8 -5 3 -15 32 -28 46 -22 219 -199 219
-224 0 -25 302 -337 326 -337 3 0 -5 15 -18 32 l-23 33 31 -22 c33 -24 52 -20
31 6 -6 9 12 -4 40 -27 29 -24 55 -48 59 -53 3 -5 19 -16 35 -25 28 -14 27
-10 -27 68 -32 46 -49 75 -38 65 11 -9 25 -17 31 -17 5 0 20 -11 33 -25 34
-36 61 -34 29 3 -13 15 -33 38 -44 52 -16 20 -16 22 -2 11 9 -7 17 -10 17 -6
0 4 7 2 15 -5 26 -22 26 -5 0 30 -14 19 -25 39 -25 46 0 6 -10 24 -22 40 l-23
29 38 -29 c51 -39 67 -23 29 30 -48 67 -47 70 4 29 40 -32 35 -24 -33 48 -101
107 -138 155 -129 165 21 20 1317 23 1671 4 l120 -7 2 -40 c12 -207 25 -432
29 -485 5 -70 13 -556 14 -813 0 -91 4 -156 9 -153 11 7 21 -18 21 -54 0 -36
15 -47 25 -17 7 21 8 20 15 -8 5 -19 9 27 10 125 l3 155 7 -100 c4 -55 9 -140
11 -190 1 -49 4 -72 6 -50 2 22 6 56 10 75 6 33 6 34 13 10 l8 -25 1 27 c1 25
21 52 21 29 0 -6 5 -11 10 -11 6 0 11 32 12 73 1 60 3 49 12 -63 11 -132 11
-134 17 -65 5 67 6 65 7 -34 2 -112 11 -125 24 -33 4 31 12 75 17 97 l9 40 2
-40 c3 -76 18 -5 21 100 l3 100 6 -115 6 -115 3 100 c2 68 6 92 11 75 4 -14 8
91 9 238 1 145 -3 261 -7 258 -16 -10 -32 443 -25 722 5 206 3 276 -6 281 -8
5 -14 86 -21 262 -12 312 -12 441 0 414 5 -12 8 105 8 280 -1 165 -4 278 -7
250 -5 -40 -9 -21 -16 95 l-10 145 -5 -130 -6 -130 -3 155 c-2 150 -3 154 -17
110 -7 -25 -17 -81 -21 -125 -8 -80 -8 -80 -14 68 -4 88 -11 153 -18 160 -8 8
-11 -1 -12 -33z m-1699 -1325 c168 -1 491 -3 719 -4 228 0 412 -3 410 -5 -2
-2 -346 -6 -765 -10 -637 -5 -763 -4 -772 7 -19 22 -1 29 53 21 27 -4 187 -8
355 -9z m840 -116 c274 -3 238 -5 -270 -10 -322 -4 -594 -7 -605 -8 -81 -8
-355 7 -337 18 10 6 631 6 1212 0z"/>
</g>
</svg>
